<svg xmlns="http://www.w3.org/2000/svg" height="40" viewBox="0 -960 960 960" width="40"><path d="M400-483.333q-66 0-109.667-43.667-43.666-43.667-43.666-109.667t43.666-109.666Q334-790 400-790t109.667 43.667q43.666 43.666 43.666 109.666T509.667-527Q466-483.333 400-483.333Zm-320 254v-33.333Q80-297 97.333-325.333q17.334-28.333 49.334-43.333Q211.667-398.667 274-414q62.334-15.333 126-15.333h12.333q6.334 0 11.667.667-6.667 15.333-10.5 30.833-3.833 15.5-6.167 35.166H400q-62.333 0-118.166 14.333Q226-334 174.667-308.667q-13.667 7-20.834 19.667-7.167 12.667-7.167 26.334v33.333H410q5.333 19 13.333 35.5T442-162.667H146.666q-27.666 0-47.166-19.5-19.5-19.5-19.5-47.166ZM654.001-146l-6.667-38q-15.334-5-30.5-13.167Q601.667-205.334 590-216l-35 8.333q-9.667 2.667-18.5-1t-13.833-12L516-232q-5.666-9.333-4-19.333 1.667-10 9.334-17l29.333-27q-2-10.667-2-25.334 0-14.666 2-25.333l-29.333-27q-7.667-6.333-9.334-16.5-1.666-10.167 4-18.833l7-13q5-8.333 13.333-11.667 8.334-3.333 18-.666L590-425.333q11.667-10.667 26.834-18.834 15.166-8.166 30.5-13.166l6.667-38.334q2.333-11.333 10.499-18.5 8.167-7.166 19.5-7.166h10.667q11.333 0 19.5 7.333 8.166 7.333 10.5 18.666l6.666 38.001q15.334 5 30.501 13.333 15.166 8.334 26.833 19.334L823.001-433q9.999-3 18.999.667 9 3.667 14 12.333l6.667 11.333q5.666 9.334 4 19.334-1.667 9.999-9.333 16.999L828-345.333q2 10 2 25t-2 25l29.334 27q7.666 6.333 9.333 16.5 1.666 10.166-4 18.833l-7 13q-5 8.333-13.333 11.666-8.334 3.334-18 .667L788.667-216Q777-205.334 761.834-197.167 746.667-189 731.333-184l-6.666 38.333q-2.334 11.334-10.5 18.5Q706-120 694.667-120H684q-11.333 0-19.5-7.333-8.166-7.334-10.499-18.667Zm35.333-94.667q35 0 57.5-22.5t22.5-57.5q0-35-22.5-57.5t-57.5-22.5q-35 0-57.5 22.5t-22.5 57.5q0 35 22.5 57.5t57.5 22.5ZM400-550q37 0 61.833-24.833 24.834-24.833 24.834-61.834 0-37-24.834-61.833Q437-723.333 400-723.333T338.167-698.5q-24.834 24.833-24.834 61.833 0 37.001 24.834 61.834Q363-550 400-550Zm0-86.667Zm10 407.334Z"/></svg>