<svg xmlns="http://www.w3.org/2000/svg" height="40" viewBox="0 -960 960 960" width="40"><path d="M120-153.333v-44L186.666-264v110.667q0 14.166-9.617 23.75Q167.432-120 153.216-120 139-120 129.5-129.583q-9.5-9.584-9.5-23.75Zm163.333 0v-204L350-424v270.667q0 14.166-9.617 23.75Q330.766-120 316.55-120q-14.217 0-23.717-9.583-9.5-9.584-9.5-23.75Zm163.334 0V-424l66.666 67.667v203q0 14.166-9.617 23.75Q494.099-120 479.883-120q-14.216 0-23.716-9.583-9.5-9.584-9.5-23.75Zm163.333 0v-203L676.667-423v269.667q0 14.166-9.617 23.75Q657.433-120 643.216-120 629-120 619.5-129.583q-9.5-9.584-9.5-23.75Zm163.334 0v-364L840-584v430.667q0 14.166-9.617 23.75Q820.766-120 806.55-120q-14.216 0-23.716-9.583-9.5-9.584-9.5-23.75ZM130-450.667l223-221.667q18.956-18.999 46.978-18.999 28.022 0 47.022 18.999l113 113.001 223.334-223.334q10-10 23.499-9.833 13.5.166 23.413 10.166 9.087 10 9.254 23.5.167 13.5-9.5 23.167l-223 223Q588-493 559.667-493.334q-28.334-.333-47.333-19.333L400-625.001 177.333-403q-10.044 10-23.855 9.5T129.754-404q-9.087-10-9.254-23.5-.167-13.5 9.5-23.167Z"/></svg>