<svg xmlns="http://www.w3.org/2000/svg" height="40" viewBox="0 -960 960 960" width="40"><path d="m56.667-310 151-241.333q9-14.334 25.833-15.5 16.833-1.167 28.166 11.166L352-450l132.333-214.333q9-15.667 27.5-16 18.5-.334 28.5 15l80 119q-18.333 1.667-35.166 6.167-16.834 4.5-33.5 11.166l-37.334-57L386-376.667q-9 14.333-26 15.667-17 1.333-28.333-11.333l-91.001-106.334-127.333 204.334Q105.666-262 91.5-258.834q-14.167 3.167-26.167-5.833-11-7.666-13.166-20.833-2.167-13.167 4.5-24.5ZM872.334-40 741.333-171q-20.666 14.667-45.166 22.333-24.5 7.667-50.5 7.667-72.334 0-122.833-50.5-50.5-50.5-50.5-122.833 0-72.334 50.5-122.833 50.499-50.5 122.833-50.5 72.333 0 122.833 50.5Q819-386.667 819-314.333q0 26-8 50.5t-22 46.166l131 130L872.334-40ZM645.667-207.666q44.666 0 75.667-31 31-31.001 31-75.667 0-44.667-31-75.667-31.001-31-75.667-31Q601-421 570-390t-31 75.667q0 44.666 31 75.667 31 31 75.667 31ZM724.666-533q-16.333-6.667-33.833-9.666-17.5-3-36.166-4.667l192-302.667q7.667-12 21.667-15 14-3 25.999 6 11 7.667 13.667 20.833 2.667 13.167-4.667 24.5L724.666-533Z"/></svg>