<?xml version="1.0" encoding="UTF-8" standalone="no"?>
<svg
   id="Calque_2"
   data-name="Calque 2"
   width="92.099998"
   height="92.099998"
   viewBox="0 0 92.099999 92.1"
   version="1.1"
   sodipodi:docname="logo-roboticadour-simplifie.svg"
   inkscape:export-filename="logo-roboticadour.svg"
   inkscape:export-xdpi="96"
   inkscape:export-ydpi="96"
   xmlns:inkscape="http://www.inkscape.org/namespaces/inkscape"
   xmlns:sodipodi="http://sodipodi.sourceforge.net/DTD/sodipodi-0.dtd"
   xmlns="http://www.w3.org/2000/svg"
   xmlns:svg="http://www.w3.org/2000/svg">
  <sodipodi:namedview
     id="namedview1"
     pagecolor="#505050"
     bordercolor="#eeeeee"
     borderopacity="1"
     inkscape:showpageshadow="0"
     inkscape:pageopacity="0"
     inkscape:pagecheckerboard="0"
     inkscape:deskcolor="#505050" />
  <defs
     id="defs72" />
  <g
     id="Calque_1-2"
     data-name="Calque 1">
    <g
       id="g72">
      <g
         id="g42" />
      <g
         id="g71">
        <path
           d="m 46.19,92.1 h -0.38 c 0,0 0.2,-29.83 0.2,-29.83 h 0.17 c 0.56,0 1.17,-0.03 1.74,-0.09 l 3.11,29.66 c -1.6,0.17 -3.23,0.25 -4.84,0.25 z"
           style="fill:#ffc700"
           id="path42" />
        <path
           d="M 31.96,89.87 C 30.29,89.33 28.63,88.69 27.04,87.96 L 39.41,60.82 c 0.56,0.26 1.14,0.48 1.73,0.67 l -9.17,28.38 z"
           style="fill:#ffc700"
           id="path43" />
        <path
           d="M 64.59,88.28 52.68,60.93 c 0.57,-0.25 1.13,-0.53 1.66,-0.84 L 69.3,85.9 c -1.51,0.88 -3.1,1.68 -4.7,2.38 z"
           style="fill:#ffc700"
           id="path44" />
        <path
           d="m 15.32,80.29 c -1.3,-1.17 -2.55,-2.42 -3.7,-3.73 L 33.94,56.77 c 0.41,0.47 0.86,0.91 1.32,1.33 z"
           style="fill:#ffc700"
           id="path45" />
        <path
           d="M 80.19,77.14 58.21,56.97 c 0.42,-0.46 0.82,-0.95 1.19,-1.45 l 24.12,17.54 c -1.03,1.41 -2.15,2.78 -3.33,4.07 z"
           style="fill:#ffc700"
           id="path46" />
        <path
           d="M 4.02,64.8 C 3.3,63.2 2.67,61.54 2.14,59.86 l 28.44,-8.99 c 0.19,0.59 0.41,1.17 0.66,1.73 z"
           style="fill:#ffc700"
           id="path47" />
        <path
           d="M 89.96,60.61 61.68,51.14 c 0.2,-0.59 0.36,-1.19 0.49,-1.8 l 29.18,6.17 c -0.36,1.71 -0.83,3.43 -1.38,5.09 z"
           style="fill:#ffc700"
           id="path48" />
        <path
           d="M 29.83,46 H 0 V 45.94 C 0,44.23 0.1,42.5 0.28,40.79 l 29.64,3.29 c -0.07,0.61 -0.1,1.23 -0.1,1.85 v 0.06 z"
           style="fill:#ffc700"
           id="path49" />
        <path
           d="m 62.43,44.3 c -0.06,-0.62 -0.16,-1.24 -0.29,-1.84 l 29.15,-6.29 c 0.37,1.71 0.64,3.46 0.81,5.21 L 62.42,44.3 Z"
           style="fill:#ffc700"
           id="path50" />
        <path
           d="M 31.21,39.33 3.95,27.24 c 0.71,-1.61 1.52,-3.19 2.41,-4.7 l 25.7,15.14 c -0.31,0.53 -0.6,1.08 -0.85,1.65 z"
           style="fill:#ffc700"
           id="path51" />
        <path
           d="M 60.38,37.86 C 60.07,37.32 59.73,36.8 59.36,36.3 L 83.41,18.66 c 1.03,1.41 2,2.9 2.87,4.42 l -25.9,14.79 z"
           style="fill:#ffc700"
           id="path52" />
        <path
           d="M 35.21,33.81 15.19,11.7 c 1.29,-1.17 2.67,-2.28 4.09,-3.3 l 17.39,24.23 c -0.51,0.36 -1,0.76 -1.46,1.18 z"
           style="fill:#ffc700"
           id="path53" />
        <path
           d="m 55.84,32.76 c -0.5,-0.37 -1.02,-0.71 -1.56,-1.02 L 69.12,5.87 c 1.52,0.87 3.01,1.84 4.42,2.88 l -17.7,24 z"
           style="fill:#ffc700"
           id="path54" />
        <path
           d="M 41.07,30.4 31.78,2.06 c 1.67,-0.55 3.39,-1 5.11,-1.36 l 5.97,29.22 c -0.6,0.12 -1.2,0.28 -1.79,0.47 z"
           style="fill:#ffc700"
           id="path55" />
        <path
           d="m 49.68,29.97 c -0.6,-0.13 -1.22,-0.23 -1.84,-0.29 L 50.84,0 c 1.75,0.18 3.5,0.45 5.2,0.83 l -6.35,29.14 z"
           style="fill:#ffc700"
           id="path56" />
        <path
           d="M 42.02,85.93 C 40.5,85.77 38.98,85.53 37.49,85.2 l 3.85,-17.48 c 0.82,0.18 1.67,0.32 2.51,0.4 l -1.83,17.8 z"
           style="fill:#ffc700"
           id="path57" />
        <path
           d="M 54.18,85.34 50.63,67.8 c 0.83,-0.17 1.65,-0.38 2.45,-0.64 l 5.54,17.02 c -1.45,0.47 -2.95,0.87 -4.45,1.17 z"
           style="fill:#ffc700"
           id="path58" />
        <path
           d="M 26.11,80.78 C 24.79,80.02 23.5,79.17 22.27,78.26 L 32.92,63.88 c 0.68,0.51 1.4,0.98 2.13,1.4 z"
           style="fill:#ffc700"
           id="path59" />
        <path
           d="M 69.51,78.67 59.11,64.11 c 0.69,-0.49 1.36,-1.03 1.99,-1.6 L 73.08,75.8 c -1.13,1.02 -2.34,1.99 -3.57,2.87 z"
           style="fill:#ffc700"
           id="path60" />
        <path
           d="m 13.68,69.62 c -0.9,-1.23 -1.74,-2.53 -2.49,-3.85 l 15.56,-8.84 c 0.42,0.74 0.88,1.46 1.38,2.14 z"
           style="fill:#ffc700"
           id="path61" />
        <path
           d="m 80.8,66.37 -15.41,-9.1 c 0.43,-0.73 0.82,-1.49 1.17,-2.26 L 82.9,62.3 c -0.62,1.39 -1.33,2.77 -2.11,4.08 z"
           style="fill:#ffc700"
           id="path62" />
        <path
           d="M 6.85,54.36 C 6.53,52.87 6.3,51.35 6.15,49.83 l 17.81,-1.72 c 0.08,0.84 0.21,1.69 0.39,2.52 z"
           style="fill:#ffc700"
           id="path63" />
        <path
           d="M 86.12,50.51 68.34,48.49 c 0.1,-0.84 0.14,-1.7 0.14,-2.55 v -0.13 h 17.9 v 0.13 c 0,1.53 -0.09,3.06 -0.26,4.57 z"
           style="fill:#ffc700"
           id="path64" />
        <path
           d="M 24.33,41.34 6.81,37.67 c 0.31,-1.49 0.71,-2.98 1.2,-4.43 l 16.98,5.65 c -0.27,0.8 -0.49,1.63 -0.66,2.46 z"
           style="fill:#ffc700"
           id="path65" />
        <path
           d="m 67.43,39.16 c -0.26,-0.81 -0.56,-1.61 -0.91,-2.37 l 16.32,-7.35 c 0.63,1.39 1.18,2.83 1.64,4.29 z"
           style="fill:#ffc700"
           id="path66" />
        <path
           d="M 28.09,32.87 13.59,22.38 c 0.89,-1.23 1.87,-2.43 2.89,-3.55 L 29.69,30.9 c -0.57,0.63 -1.12,1.29 -1.61,1.98 z"
           style="fill:#ffc700"
           id="path67" />
        <path
           d="M 62.84,31.11 C 62.27,30.48 61.67,29.87 61.04,29.3 L 72.97,15.97 c 1.13,1.01 2.22,2.1 3.23,3.24 z"
           style="fill:#ffc700"
           id="path68" />
        <path
           d="m 34.97,26.64 -9,-15.47 c 1.32,-0.77 2.69,-1.46 4.09,-2.08 l 7.18,16.39 c -0.78,0.34 -1.54,0.73 -2.27,1.15 z"
           style="fill:#ffc700"
           id="path69" />
        <path
           d="M 55.36,25.6 C 54.59,25.25 53.8,24.94 52.99,24.69 L 58.46,7.65 c 1.46,0.47 2.9,1.02 4.29,1.66 l -7.39,16.3 z"
           style="fill:#ffc700"
           id="path70" />
        <path
           d="M 43.76,23.75 41.85,5.95 c 1.42,-0.15 2.87,-0.23 4.3,-0.23 h 0.29 c 0,0 -0.15,17.9 -0.15,17.9 h -0.13 c -0.81,0 -1.61,0.04 -2.4,0.13 z"
           style="fill:#ffc700"
           id="path71" />
      </g>
    </g>
  </g>
</svg>
