<?xml version="1.0" encoding="UTF-8" standalone="no"?>
<svg
   id="Calque_2"
   data-name="Calque 2"
   width="355.00101"
   height="92.099998"
   viewBox="0 0 355.00101 92.1"
   version="1.1"
   sodipodi:docname="logo-roboticadour.svg"
   inkscape:export-filename="logo-roboticadour.svg"
   inkscape:export-xdpi="96"
   inkscape:export-ydpi="96"
   xmlns:inkscape="http://www.inkscape.org/namespaces/inkscape"
   xmlns:sodipodi="http://sodipodi.sourceforge.net/DTD/sodipodi-0.dtd"
   xmlns="http://www.w3.org/2000/svg"
   xmlns:svg="http://www.w3.org/2000/svg">
  <sodipodi:namedview
     id="namedview1"
     pagecolor="#505050"
     bordercolor="#eeeeee"
     borderopacity="1"
     inkscape:showpageshadow="0"
     inkscape:pageopacity="0"
     inkscape:pagecheckerboard="0"
     inkscape:deskcolor="#505050" />
  <defs
     id="defs72" />
  <g
     id="Calque_1-2"
     data-name="Calque 1">
    <g
       id="g72">
      <g
         id="g42">
        <g
           id="g28">
          <path
             d="m 110.52669,64.524954 -1.49,-1.99 c -0.06,0.01 -0.15,0.01 -0.3,0.01 h -1.43 v 1.98 h -1.57 v -7.72 h 3.4 c 1.05,0 1.82,0.26 2.3,0.79 0.48,0.53 0.72,1.19 0.72,1.99 0,1.3 -0.53,2.19 -1.57,2.64 l 1.8,2.3 h -1.87 z m -3.22,-6.36 v 3.09 h 1.38 c 1.21,0 1.84,-0.59 1.84,-1.54 0,-0.89 -0.49,-1.54 -1.63,-1.54 h -1.59 z"
             style="fill:#494949"
             id="path12" />
          <path
             d="m 121.84669,57.894954 c 0.8,0.77 1.2,1.7 1.2,2.78 0,1.08 -0.4,2.01 -1.2,2.79 -0.8,0.77 -1.76,1.15 -2.9,1.15 -1.14,0 -2.1,-0.38 -2.9,-1.15 -0.8,-0.78 -1.2,-1.71 -1.2,-2.79 0,-1.08 0.4,-2.01 1.2,-2.78 0.8,-0.78 1.77,-1.16 2.9,-1.16 1.13,0 2.1,0.38 2.9,1.16 z m -1.14,1.04 c -0.49,-0.49 -1.07,-0.73 -1.76,-0.73 -0.69,0 -1.27,0.24 -1.76,0.73 -0.49,0.48 -0.73,1.06 -0.73,1.74 0,0.68 0.24,1.27 0.72,1.75 0.49,0.48 1.08,0.72 1.77,0.72 0.69,0 1.28,-0.24 1.77,-0.72 0.49,-0.48 0.73,-1.06 0.73,-1.75 0,-0.69 -0.25,-1.26 -0.74,-1.74 z"
             style="fill:#494949"
             id="path13" />
          <path
             d="m 130.55669,59.654954 c 0.6,0.08 1.11,0.35 1.49,0.82 0.39,0.46 0.59,1 0.59,1.61 0,0.68 -0.21,1.26 -0.62,1.73 -0.41,0.47 -0.97,0.71 -1.71,0.71 h -4.25 v -7.72 h 3.39 c 0.46,0 0.85,0.16 1.18,0.5 0.33,0.33 0.49,0.73 0.49,1.2 0,0.47 -0.22,0.92 -0.57,1.14 z m -2.98,-1.49 v 1.34 h 1.41 c 0.48,0 0.73,-0.31 0.73,-0.67 0,-0.38 -0.33,-0.67 -0.85,-0.67 z m 0.01,5 h 1.86 c 1.04,0 1.53,-0.49 1.53,-1.25 0,-0.69 -0.53,-1.26 -1.52,-1.26 h -1.87 z"
             style="fill:#494949"
             id="path14" />
          <path
             d="m 142.21669,57.894954 c 0.8,0.77 1.2,1.7 1.2,2.78 0,1.08 -0.4,2.01 -1.2,2.79 -0.8,0.77 -1.76,1.15 -2.9,1.15 -1.14,0 -2.1,-0.38 -2.9,-1.15 -0.8,-0.78 -1.2,-1.71 -1.2,-2.79 0,-1.08 0.4,-2.01 1.2,-2.78 0.8,-0.78 1.77,-1.16 2.9,-1.16 1.13,0 2.1,0.38 2.9,1.16 z m -1.14,1.04 c -0.49,-0.49 -1.07,-0.73 -1.76,-0.73 -0.69,0 -1.27,0.24 -1.76,0.73 -0.49,0.48 -0.73,1.06 -0.73,1.74 0,0.68 0.24,1.27 0.72,1.75 0.49,0.48 1.08,0.72 1.77,0.72 0.69,0 1.28,-0.24 1.77,-0.72 0.49,-0.48 0.73,-1.06 0.73,-1.75 0,-0.69 -0.25,-1.26 -0.74,-1.74 z"
             style="fill:#494949"
             id="path15" />
          <path
             d="m 152.17669,56.804954 v 1.36 h -2.46 v 6.36 h -1.58 v -6.36 h -2.45 v -1.36 z"
             style="fill:#494949"
             id="path16" />
          <path
             d="m 156.64669,56.804954 v 7.72 h -1.58 v -7.72 z"
             style="fill:#494949"
             id="path17" />
          <path
             d="m 165.71669,62.114954 1.21,1.03 c -0.78,0.92 -1.92,1.47 -3.19,1.47 -1.13,0 -2.08,-0.38 -2.88,-1.15 -0.8,-0.78 -1.19,-1.71 -1.19,-2.79 0,-1.08 0.39,-2.01 1.19,-2.79 0.8,-0.78 1.75,-1.16 2.88,-1.16 1.27,0 2.41,0.56 3.19,1.48 l -1.21,1.03 c -0.44,-0.62 -1.17,-1.02 -1.97,-1.02 -0.69,0 -1.27,0.23 -1.74,0.69 -0.47,0.46 -0.71,1.05 -0.71,1.77 0,0.72 0.24,1.3 0.71,1.77 0.47,0.46 1.05,0.69 1.74,0.69 0.8,0 1.53,-0.39 1.97,-1.02 z"
             style="fill:#494949"
             id="path18" />
          <path
             d="m 118.43218,49.841988 -3.90783,-5.522091 c -0.15737,0.02775 -0.39341,0.02775 -0.78682,0.02775 h -3.75047 v 5.494342 h -4.11765 V 28.419605 h 8.91721 c 2.75384,0 4.77333,0.72148 6.03223,2.192186 1.2589,1.470708 1.88834,3.302156 1.88834,5.522091 0,3.607397 -1.39003,6.077075 -4.11764,7.325789 l 4.72087,6.382317 h -4.90446 z m -8.44512,-17.648492 v 8.574503 h 3.61934 c 3.17347,0 4.82578,-1.637203 4.82578,-4.273376 0,-2.46968 -1.28513,-4.273378 -4.27501,-4.273378 h -4.17011 z"
             style="fill:#494949;stroke-width:2.69774"
             id="path12-3" />
          <path
             d="m 144.12124,31.444268 c 2.09818,2.136688 3.14725,4.717364 3.14725,7.714278 0,2.996914 -1.04907,5.577589 -3.14725,7.742027 -2.09816,2.136688 -4.61596,3.191158 -7.60585,3.191158 -2.98989,0 -5.50769,-1.05447 -7.60586,-3.191158 -2.09816,-2.164438 -3.14725,-4.745113 -3.14725,-7.742027 0,-2.996914 1.04909,-5.57759 3.14725,-7.714278 2.09817,-2.164438 4.6422,-3.218908 7.60586,-3.218908 2.96366,0 5.50769,1.05447 7.60585,3.218908 z m -2.98989,2.885917 c -1.28512,-1.359712 -2.80629,-2.025693 -4.61596,-2.025693 -1.80967,0 -3.33084,0.665981 -4.61597,2.025693 -1.28512,1.331961 -1.91458,2.941415 -1.91458,4.828361 0,1.886945 0.62946,3.524148 1.88836,4.85611 1.28512,1.331961 2.83252,1.997942 4.64219,1.997942 1.80967,0 3.35706,-0.665981 4.6422,-1.997942 1.28512,-1.331962 1.91457,-2.941415 1.91457,-4.85611 0,-1.914695 -0.65567,-3.4964 -1.94081,-4.828361 z"
             style="fill:#494949;stroke-width:2.69774"
             id="path13-6" />
          <path
             d="m 162.96503,36.328127 c 1.57363,0.221993 2.91121,0.971222 3.90784,2.275435 1.02286,1.276462 1.5474,2.774919 1.5474,4.467621 0,1.886945 -0.55077,3.496398 -1.62608,4.800611 -1.07531,1.304213 -2.54402,1.970194 -4.48483,1.970194 H 151.16285 V 28.419605 h 8.89098 c 1.20645,0 2.2293,0.443987 3.09479,1.387459 0.8655,0.915724 1.28514,2.025693 1.28514,3.329904 0,1.304213 -0.577,2.552927 -1.49495,3.163409 z m -7.81567,-4.134631 v 3.718393 h 3.69803 c 1.2589,0 1.91457,-0.860226 1.91457,-1.859197 0,-1.054469 -0.8655,-1.859196 -2.2293,-1.859196 z m 0.0263,13.874601 h 4.87824 c 2.72762,0 4.01274,-1.359712 4.01274,-3.468651 0,-1.914694 -1.39003,-3.496399 -3.98652,-3.496399 h -4.90446 z"
             style="fill:#494949;stroke-width:2.69774"
             id="path14-7" />
          <path
             d="m 189.54582,31.444268 c 2.09816,2.136688 3.14725,4.717364 3.14725,7.714278 0,2.996914 -1.04909,5.577589 -3.14725,7.742027 -2.09817,2.136688 -4.61596,3.191158 -7.60585,3.191158 -2.98989,0 -5.5077,-1.05447 -7.60586,-3.191158 -2.09817,-2.164438 -3.14725,-4.745113 -3.14725,-7.742027 0,-2.996914 1.04908,-5.57759 3.14725,-7.714278 2.09816,-2.164438 4.64219,-3.218908 7.60586,-3.218908 2.96365,0 5.50768,1.05447 7.60585,3.218908 z m -2.98989,2.885917 c -1.28512,-1.359712 -2.8063,-2.025693 -4.61596,-2.025693 -1.80967,0 -3.33084,0.665981 -4.61597,2.025693 -1.28513,1.331961 -1.91458,2.941415 -1.91458,4.828361 0,1.886945 0.62945,3.524148 1.88835,4.85611 1.28513,1.331961 2.83253,1.997942 4.6422,1.997942 1.80966,0 3.35706,-0.665981 4.64219,-1.997942 1.28513,-1.331962 1.91458,-2.941415 1.91458,-4.85611 0,-1.914695 -0.65568,-3.4964 -1.94081,-4.828361 z"
             style="fill:#494949;stroke-width:2.69774"
             id="path15-5" />
          <path
             d="m 211.668,28.419605 v 3.773891 h -6.45186 v 17.648492 h -4.14388 V 32.193496 h -6.42564 v -3.773891 z"
             style="fill:#494949;stroke-width:2.69774"
             id="path16-3" />
          <path
             d="m 221.39151,28.419605 v 21.422383 h -4.14388 V 28.419605 Z"
             style="fill:#494949;stroke-width:2.69774"
             id="path17-5" />
          <path
             d="m 241.17948,43.154431 3.17347,2.858167 c -2.04571,2.552927 -5.03559,4.079133 -8.36644,4.079133 -2.96366,0 -5.45523,-1.05447 -7.55339,-3.191158 -2.09818,-2.164438 -3.12103,-4.745113 -3.12103,-7.742027 0,-2.996914 1.02285,-5.57759 3.12103,-7.742027 2.09816,-2.164438 4.58973,-3.218908 7.55339,-3.218908 3.33085,0 6.32073,1.553956 8.36644,4.106881 l -3.17347,2.858169 c -1.154,-1.720451 -3.06857,-2.830419 -5.16674,-2.830419 -1.80967,0 -3.33084,0.638231 -4.56351,1.914695 -1.23268,1.276463 -1.86213,2.913666 -1.86213,4.911609 0,1.997942 0.62945,3.607396 1.86213,4.911608 1.23267,1.276463 2.75384,1.914695 4.56351,1.914695 2.09817,0 4.01274,-1.08222 5.16674,-2.830418 z"
             style="fill:#494949;stroke-width:2.69774"
             id="path18-6" />
          <path
             d="m 174.94669,60.774954 c 0.47,0.34 0.7,0.83 0.7,1.49 0,0.73 -0.27,1.31 -0.82,1.74 -0.54,0.42 -1.26,0.62 -2.17,0.62 -0.68,0 -1.24,-0.04 -1.66,-0.14 -0.43,-0.1 -0.94,-0.3 -1.54,-0.59 l 0.57,-1.22 c 0.48,0.23 0.92,0.39 1.31,0.47 0.4,0.08 0.87,0.12 1.38,0.12 0.84,0 1.35,-0.31 1.35,-0.88 0,-0.49 -0.45,-0.74 -1.64,-1.02 -0.73,-0.16 -1.16,-0.28 -1.7,-0.54 -0.76,-0.35 -1.14,-0.9 -1.17,-1.8 0,-0.69 0.25,-1.25 0.77,-1.68 0.51,-0.43 1.22,-0.65 2.08,-0.65 1.02,0 2,0.21 2.96,0.62 l -0.63,1.25 c -0.82,-0.34 -1.6,-0.51 -2.35,-0.51 -0.75,0 -1.23,0.34 -1.23,0.83 0,0.53 0.47,0.77 1.71,1.04 0.93,0.21 1.63,0.48 2.1,0.82 z"
             style="fill:#494949"
             id="path19" />
          <path
             d="m 188.96669,60.774954 c 0.47,0.34 0.7,0.83 0.7,1.49 0,0.73 -0.27,1.31 -0.82,1.74 -0.54,0.42 -1.26,0.62 -2.17,0.62 -0.68,0 -1.24,-0.04 -1.66,-0.14 -0.43,-0.1 -0.94,-0.3 -1.54,-0.59 l 0.57,-1.22 c 0.48,0.23 0.92,0.39 1.31,0.47 0.4,0.08 0.87,0.12 1.38,0.12 0.84,0 1.35,-0.31 1.35,-0.88 0,-0.49 -0.45,-0.74 -1.64,-1.02 -0.73,-0.16 -1.16,-0.28 -1.7,-0.54 -0.76,-0.35 -1.14,-0.9 -1.17,-1.8 0,-0.69 0.25,-1.25 0.77,-1.68 0.51,-0.43 1.22,-0.65 2.08,-0.65 1.02,0 2,0.21 2.96,0.62 l -0.64,1.25 c -0.82,-0.34 -1.6,-0.51 -2.35,-0.51 -0.75,0 -1.23,0.34 -1.23,0.83 0,0.53 0.47,0.77 1.71,1.04 0.93,0.21 1.63,0.48 2.1,0.82 z"
             style="fill:#494949"
             id="path20" />
          <path
             d="m 199.29669,57.894954 c 0.8,0.77 1.2,1.7 1.2,2.78 0,1.08 -0.4,2.01 -1.2,2.79 -0.8,0.77 -1.76,1.15 -2.9,1.15 -1.14,0 -2.1,-0.38 -2.9,-1.15 -0.8,-0.78 -1.2,-1.71 -1.2,-2.79 0,-1.08 0.4,-2.01 1.2,-2.78 0.8,-0.78 1.77,-1.16 2.9,-1.16 1.13,0 2.1,0.38 2.9,1.16 z m -1.14,1.04 c -0.49,-0.49 -1.07,-0.73 -1.76,-0.73 -0.69,0 -1.27,0.24 -1.76,0.73 -0.49,0.48 -0.73,1.06 -0.73,1.74 0,0.68 0.24,1.27 0.72,1.75 0.49,0.48 1.08,0.72 1.77,0.72 0.69,0 1.28,-0.24 1.77,-0.72 0.49,-0.48 0.73,-1.06 0.73,-1.75 0,-0.69 -0.25,-1.26 -0.74,-1.74 z"
             style="fill:#494949"
             id="path21" />
          <path
             d="m 205.08669,63.214954 h 3.97 v 1.31 h -5.54 v -7.72 h 1.57 v 6.4 z"
             style="fill:#494949"
             id="path22" />
          <path
             d="m 218.43669,56.804954 v 4.62 c 0,0.93 -0.31,1.69 -0.91,2.29 -0.6,0.6 -1.43,0.9 -2.52,0.9 -1.09,0 -1.92,-0.3 -2.52,-0.9 -0.59,-0.6 -0.89,-1.36 -0.89,-2.29 v -4.62 h 1.53 v 4.22 c 0,1.43 0.62,2.15 1.87,2.15 1.25,0 1.89,-0.71 1.89,-2.15 v -4.22 h 1.53 z"
             style="fill:#494949"
             id="path23" />
          <path
             d="m 227.73669,56.804954 v 1.36 h -2.46 v 6.36 h -1.58 v -6.36 h -2.45 v -1.36 z"
             style="fill:#494949"
             id="path24" />
          <path
             d="m 232.20669,56.804954 v 7.72 h -1.58 v -7.72 z"
             style="fill:#494949"
             id="path25" />
          <path
             d="m 242.22669,57.894954 c 0.8,0.77 1.2,1.7 1.2,2.78 0,1.08 -0.4,2.01 -1.2,2.79 -0.8,0.77 -1.76,1.15 -2.9,1.15 -1.14,0 -2.1,-0.38 -2.9,-1.15 -0.8,-0.78 -1.2,-1.71 -1.2,-2.79 0,-1.08 0.4,-2.01 1.2,-2.78 0.8,-0.78 1.77,-1.16 2.9,-1.16 1.13,0 2.1,0.38 2.9,1.16 z m -1.14,1.04 c -0.49,-0.49 -1.07,-0.73 -1.76,-0.73 -0.69,0 -1.27,0.24 -1.76,0.73 -0.49,0.48 -0.73,1.06 -0.73,1.74 0,0.68 0.24,1.27 0.72,1.75 0.49,0.48 1.08,0.72 1.77,0.72 0.69,0 1.28,-0.24 1.77,-0.72 0.49,-0.48 0.73,-1.06 0.73,-1.75 0,-0.69 -0.25,-1.26 -0.74,-1.74 z"
             style="fill:#494949"
             id="path26" />
          <path
             d="m 251.80669,56.804954 h 1.58 v 7.72 h -0.77 l -4.61,-4.86 v 4.86 h -1.57 v -7.72 h 0.77 l 4.6,4.86 z"
             style="fill:#494949"
             id="path27" />
          <path
             d="m 261.82669,60.774954 c 0.47,0.34 0.7,0.83 0.7,1.49 0,0.73 -0.27,1.31 -0.82,1.74 -0.54,0.42 -1.26,0.62 -2.17,0.62 -0.68,0 -1.24,-0.04 -1.66,-0.14 -0.43,-0.1 -0.94,-0.3 -1.54,-0.59 l 0.57,-1.22 c 0.48,0.23 0.92,0.39 1.31,0.47 0.4,0.08 0.87,0.12 1.38,0.12 0.84,0 1.35,-0.31 1.35,-0.88 0,-0.49 -0.45,-0.74 -1.64,-1.02 -0.73,-0.16 -1.16,-0.28 -1.7,-0.54 -0.76,-0.35 -1.14,-0.9 -1.17,-1.8 0,-0.69 0.25,-1.25 0.77,-1.68 0.51,-0.43 1.22,-0.65 2.08,-0.65 1.02,0 2,0.21 2.96,0.62 l -0.63,1.25 c -0.82,-0.34 -1.6,-0.51 -2.35,-0.51 -0.75,0 -1.23,0.34 -1.23,0.83 0,0.53 0.47,0.77 1.71,1.04 0.93,0.21 1.63,0.48 2.1,0.82 z"
             style="fill:#494949"
             id="path28" />
        </g>
        <g
           id="g41"
           transform="translate(-114.24379,-2.3219483)">
          <path
             d="m 380.425,52.440483 -2.57,-5.8 h -11.66 l -2.54,5.8 h -1.87 l 9.7,-21.29 h 1.12 l 9.7,21.29 h -1.87 z m -8.4,-18.94 -5.17,11.66 h 10.36 l -5.2,-11.66 z"
             style="fill:#ffc700"
             id="path37" />
          <path
             d="m 416.435,31.020483 c 3.11,0 5.74,1.06 7.91,3.17 2.2,2.08 3.29,4.62 3.29,7.61 0,2.99 -1.09,5.53 -3.29,7.61 -2.17,2.08 -4.8,3.14 -7.91,3.14 -3.11,0 -5.74,-1.06 -7.94,-3.14 -2.2,-2.08 -3.29,-4.62 -3.29,-7.61 0,-2.99 1.09,-5.53 3.29,-7.61 2.21,-2.11 4.83,-3.17 7.94,-3.17 z m 0,19.87 c 2.6,0 4.8,-0.88 6.65,-2.66 1.84,-1.78 2.78,-3.93 2.78,-6.43 0,-2.5 -0.94,-4.62 -2.78,-6.4 -1.84,-1.78 -4.05,-2.69 -6.65,-2.69 -2.6,0 -4.83,0.91 -6.68,2.69 -1.84,1.78 -2.75,3.9 -2.75,6.4 0,2.5 0.91,4.65 2.75,6.43 1.84,1.78 4.08,2.66 6.68,2.66 z"
             style="fill:#ffc700"
             id="path38" />
          <path
             d="m 448.705,31.140483 v 12.75 c 0,2.51 -0.79,4.59 -2.33,6.22 -1.54,1.63 -3.65,2.45 -6.4,2.45 -2.75,0 -4.86,-0.82 -6.4,-2.42 -1.54,-1.63 -2.3,-3.72 -2.3,-6.25 v -12.75 h 1.72 v 12.41 c 0,4.44 2.54,7.34 6.98,7.34 2.24,0 3.96,-0.66 5.17,-2.02 1.24,-1.36 1.84,-3.11 1.84,-5.32 v -12.41 z"
             style="fill:#ffc700"
             id="path39" />
          <path
             d="m 467.825,52.440483 -5.2,-7.07 c -0.45,0.09 -1.03,0.12 -1.69,0.12 h -5.8 v 6.95 h -1.75 v -21.3 h 8.43 c 2.63,0 4.53,0.66 5.74,1.99 1.24,1.3 1.84,2.96 1.84,4.95 0,3.69 -1.66,6.01 -4.98,6.95 l 5.56,7.4 h -2.14 z m -12.69,-19.72 v 11.24 h 5.77 c 4.14,0 6.65,-1.93 6.65,-5.77 0,-3.14 -1.84,-5.47 -5.95,-5.47 h -6.46 z"
             style="fill:#ffc700"
             id="path40" />
          <path
             d="m 399.465,34.290483 c -2.08,-2.08 -4.62,-3.14 -7.58,-3.14 h -6.92 v 13.4 h 1.72 v -11.77 h 5.2 c 2.48,0 4.59,0.88 6.34,2.66 1.75,1.75 2.63,3.87 2.63,6.37 0,2.36 -0.82,4.41 -2.48,6.13 -1.63,1.72 -3.62,2.69 -5.95,2.87 l -7.46,-0.02 v 1.65 h 7.61 c 2.81,-0.18 5.17,-1.3 7.1,-3.32 1.96,-2.05 2.93,-4.5 2.93,-7.31 0,-2.81 -1.06,-5.44 -3.14,-7.52 z"
             style="fill:#ffc700"
             id="path41" />
        </g>
      </g>
      <g
         id="g71">
        <path
           d="m 46.19,92.1 h -0.38 c 0,0 0.2,-29.83 0.2,-29.83 h 0.17 c 0.56,0 1.17,-0.03 1.74,-0.09 l 3.11,29.66 c -1.6,0.17 -3.23,0.25 -4.84,0.25 z"
           style="fill:#ffc700"
           id="path42" />
        <path
           d="M 31.96,89.87 C 30.29,89.33 28.63,88.69 27.04,87.96 L 39.41,60.82 c 0.56,0.26 1.14,0.48 1.73,0.67 l -9.17,28.38 z"
           style="fill:#ffc700"
           id="path43" />
        <path
           d="M 64.59,88.28 52.68,60.93 c 0.57,-0.25 1.13,-0.53 1.66,-0.84 L 69.3,85.9 c -1.51,0.88 -3.1,1.68 -4.7,2.38 z"
           style="fill:#ffc700"
           id="path44" />
        <path
           d="m 15.32,80.29 c -1.3,-1.17 -2.55,-2.42 -3.7,-3.73 L 33.94,56.77 c 0.41,0.47 0.86,0.91 1.32,1.33 z"
           style="fill:#ffc700"
           id="path45" />
        <path
           d="M 80.19,77.14 58.21,56.97 c 0.42,-0.46 0.82,-0.95 1.19,-1.45 l 24.12,17.54 c -1.03,1.41 -2.15,2.78 -3.33,4.07 z"
           style="fill:#ffc700"
           id="path46" />
        <path
           d="M 4.02,64.8 C 3.3,63.2 2.67,61.54 2.14,59.86 l 28.44,-8.99 c 0.19,0.59 0.41,1.17 0.66,1.73 z"
           style="fill:#ffc700"
           id="path47" />
        <path
           d="M 89.96,60.61 61.68,51.14 c 0.2,-0.59 0.36,-1.19 0.49,-1.8 l 29.18,6.17 c -0.36,1.71 -0.83,3.43 -1.38,5.09 z"
           style="fill:#ffc700"
           id="path48" />
        <path
           d="M 29.83,46 H 0 V 45.94 C 0,44.23 0.1,42.5 0.28,40.79 l 29.64,3.29 c -0.07,0.61 -0.1,1.23 -0.1,1.85 v 0.06 z"
           style="fill:#ffc700"
           id="path49" />
        <path
           d="m 62.43,44.3 c -0.06,-0.62 -0.16,-1.24 -0.29,-1.84 l 29.15,-6.29 c 0.37,1.71 0.64,3.46 0.81,5.21 L 62.42,44.3 Z"
           style="fill:#ffc700"
           id="path50" />
        <path
           d="M 31.21,39.33 3.95,27.24 c 0.71,-1.61 1.52,-3.19 2.41,-4.7 l 25.7,15.14 c -0.31,0.53 -0.6,1.08 -0.85,1.65 z"
           style="fill:#ffc700"
           id="path51" />
        <path
           d="M 60.38,37.86 C 60.07,37.32 59.73,36.8 59.36,36.3 L 83.41,18.66 c 1.03,1.41 2,2.9 2.87,4.42 l -25.9,14.79 z"
           style="fill:#ffc700"
           id="path52" />
        <path
           d="M 35.21,33.81 15.19,11.7 c 1.29,-1.17 2.67,-2.28 4.09,-3.3 l 17.39,24.23 c -0.51,0.36 -1,0.76 -1.46,1.18 z"
           style="fill:#ffc700"
           id="path53" />
        <path
           d="m 55.84,32.76 c -0.5,-0.37 -1.02,-0.71 -1.56,-1.02 L 69.12,5.87 c 1.52,0.87 3.01,1.84 4.42,2.88 l -17.7,24 z"
           style="fill:#ffc700"
           id="path54" />
        <path
           d="M 41.07,30.4 31.78,2.06 c 1.67,-0.55 3.39,-1 5.11,-1.36 l 5.97,29.22 c -0.6,0.12 -1.2,0.28 -1.79,0.47 z"
           style="fill:#ffc700"
           id="path55" />
        <path
           d="m 49.68,29.97 c -0.6,-0.13 -1.22,-0.23 -1.84,-0.29 L 50.84,0 c 1.75,0.18 3.5,0.45 5.2,0.83 l -6.35,29.14 z"
           style="fill:#ffc700"
           id="path56" />
        <path
           d="M 42.02,85.93 C 40.5,85.77 38.98,85.53 37.49,85.2 l 3.85,-17.48 c 0.82,0.18 1.67,0.32 2.51,0.4 l -1.83,17.8 z"
           style="fill:#ffc700"
           id="path57" />
        <path
           d="M 54.18,85.34 50.63,67.8 c 0.83,-0.17 1.65,-0.38 2.45,-0.64 l 5.54,17.02 c -1.45,0.47 -2.95,0.87 -4.45,1.17 z"
           style="fill:#ffc700"
           id="path58" />
        <path
           d="M 26.11,80.78 C 24.79,80.02 23.5,79.17 22.27,78.26 L 32.92,63.88 c 0.68,0.51 1.4,0.98 2.13,1.4 z"
           style="fill:#ffc700"
           id="path59" />
        <path
           d="M 69.51,78.67 59.11,64.11 c 0.69,-0.49 1.36,-1.03 1.99,-1.6 L 73.08,75.8 c -1.13,1.02 -2.34,1.99 -3.57,2.87 z"
           style="fill:#ffc700"
           id="path60" />
        <path
           d="m 13.68,69.62 c -0.9,-1.23 -1.74,-2.53 -2.49,-3.85 l 15.56,-8.84 c 0.42,0.74 0.88,1.46 1.38,2.14 z"
           style="fill:#ffc700"
           id="path61" />
        <path
           d="m 80.8,66.37 -15.41,-9.1 c 0.43,-0.73 0.82,-1.49 1.17,-2.26 L 82.9,62.3 c -0.62,1.39 -1.33,2.77 -2.11,4.08 z"
           style="fill:#ffc700"
           id="path62" />
        <path
           d="M 6.85,54.36 C 6.53,52.87 6.3,51.35 6.15,49.83 l 17.81,-1.72 c 0.08,0.84 0.21,1.69 0.39,2.52 z"
           style="fill:#ffc700"
           id="path63" />
        <path
           d="M 86.12,50.51 68.34,48.49 c 0.1,-0.84 0.14,-1.7 0.14,-2.55 v -0.13 h 17.9 v 0.13 c 0,1.53 -0.09,3.06 -0.26,4.57 z"
           style="fill:#ffc700"
           id="path64" />
        <path
           d="M 24.33,41.34 6.81,37.67 c 0.31,-1.49 0.71,-2.98 1.2,-4.43 l 16.98,5.65 c -0.27,0.8 -0.49,1.63 -0.66,2.46 z"
           style="fill:#ffc700"
           id="path65" />
        <path
           d="m 67.43,39.16 c -0.26,-0.81 -0.56,-1.61 -0.91,-2.37 l 16.32,-7.35 c 0.63,1.39 1.18,2.83 1.64,4.29 z"
           style="fill:#ffc700"
           id="path66" />
        <path
           d="M 28.09,32.87 13.59,22.38 c 0.89,-1.23 1.87,-2.43 2.89,-3.55 L 29.69,30.9 c -0.57,0.63 -1.12,1.29 -1.61,1.98 z"
           style="fill:#ffc700"
           id="path67" />
        <path
           d="M 62.84,31.11 C 62.27,30.48 61.67,29.87 61.04,29.3 L 72.97,15.97 c 1.13,1.01 2.22,2.1 3.23,3.24 z"
           style="fill:#ffc700"
           id="path68" />
        <path
           d="m 34.97,26.64 -9,-15.47 c 1.32,-0.77 2.69,-1.46 4.09,-2.08 l 7.18,16.39 c -0.78,0.34 -1.54,0.73 -2.27,1.15 z"
           style="fill:#ffc700"
           id="path69" />
        <path
           d="M 55.36,25.6 C 54.59,25.25 53.8,24.94 52.99,24.69 L 58.46,7.65 c 1.46,0.47 2.9,1.02 4.29,1.66 l -7.39,16.3 z"
           style="fill:#ffc700"
           id="path70" />
        <path
           d="M 43.76,23.75 41.85,5.95 c 1.42,-0.15 2.87,-0.23 4.3,-0.23 h 0.29 c 0,0 -0.15,17.9 -0.15,17.9 h -0.13 c -0.81,0 -1.61,0.04 -2.4,0.13 z"
           style="fill:#ffc700"
           id="path71" />
      </g>
    </g>
  </g>
</svg>
